<svg width="50" height="50" viewBox="0 0 50 50" fill="none" xmlns="http://www.w3.org/2000/svg">
<rect width="50" height="50" fill="#1E1E1E"/>
<path d="M0 10C0 4.47715 4.47715 0 10 0H40C45.5228 0 50 4.47715 50 10V40C50 45.5228 45.5228 50 40 50H10C4.47715 50 0 45.5228 0 40V10Z" fill="#4F39F6"/>
<path d="M30 15V35C30 35.9889 30.2932 36.9556 30.8427 37.7779C31.3921 38.6001 32.173 39.241 33.0866 39.6194C34.0002 39.9978 35.0055 40.0969 35.9755 39.9039C36.9454 39.711 37.8363 39.2348 38.5355 38.5355C39.2348 37.8363 39.711 36.9454 39.9039 35.9755C40.0969 35.0055 39.9978 34.0002 39.6194 33.0866C39.241 32.173 38.6001 31.3921 37.7779 30.8427C36.9556 30.2932 35.9889 30 35 30H15C14.0111 30 13.0444 30.2932 12.2222 30.8427C11.3999 31.3921 10.759 32.173 10.3806 33.0866C10.0022 34.0002 9.90315 35.0055 10.0961 35.9755C10.289 36.9454 10.7652 37.8363 11.4645 38.5355C12.1637 39.2348 13.0546 39.711 14.0246 39.9039C14.9945 40.0969 15.9998 39.9978 16.9134 39.6194C17.827 39.241 18.6079 38.6001 19.1573 37.7779C19.7068 36.9556 20 35.9889 20 35V15C20 14.0111 19.7068 13.0444 19.1573 12.2222C18.6079 11.3999 17.827 10.759 16.9134 10.3806C15.9998 10.0022 14.9945 9.90315 14.0246 10.0961C13.0546 10.289 12.1637 10.7652 11.4645 11.4645C10.7652 12.1637 10.289 13.0546 10.0961 14.0246C9.90315 14.9945 10.0022 15.9998 10.3806 16.9134C10.759 17.827 11.3999 18.6079 12.2222 19.1573C13.0444 19.7068 14.0111 20 15 20H35C35.9889 20 36.9556 19.7068 37.7779 19.1573C38.6001 18.6079 39.241 17.827 39.6194 16.9134C39.9978 15.9998 40.0969 14.9945 39.9039 14.0246C39.711 13.0546 39.2348 12.1637 38.5355 11.4645C37.8363 10.7652 36.9454 10.289 35.9755 10.0961C35.0055 9.90315 34.0002 10.0022 33.0866 10.3806C32.173 10.759 31.3921 11.3999 30.8427 12.2222C30.2932 13.0444 30 14.0111 30 15Z" stroke="white" stroke-width="2" stroke-linecap="round" stroke-linejoin="round"/>
</svg>
